<svg xmlns="http://www.w3.org/2000/svg" viewBox="0 0 64 64" fill="none">
 <rect x="2" y="2" width="60" height="60" rx="15" fill="#edf4fb"/>
 <rect x="10" y="12" width="42" height="39" rx="6" fill="#fff" stroke="#235f9c" stroke-width="3"/>
 <path d="M17 37c-3-8 3-15 11-13 5 1 4 5 10 5 7 0 8 11 1 15-7 5-19 0-22-7Z" fill="#bfe5df" stroke="#277e79" stroke-width="2"/>
 <ellipse cx="28" cy="34" rx="5" ry="4" fill="#79bdb4" stroke="#277e79" stroke-width="1.5"/>
 <circle cx="38" cy="39" r="2" fill="#277e79"/>
 <path d="m43 30 11-12 5 5-12 12-6 2Z" fill="#e7a551" stroke="#965d27" stroke-width="2" stroke-linejoin="round"/>
 <path d="m51 21 5 5M41 37l2-7" stroke="#965d27" stroke-width="2"/>
</svg>
